<?xml version="1.0" encoding="UTF-8"?>
<svg width="24" height="24" viewBox="0 0 156 144" fill="none" xmlns="http://www.w3.org/2000/svg">
<path d="M45.825 0C20.5595 0 0 19.0643 0 42.4923V101.328C0 124.756 20.5595 143.82 45.825 143.82H109.275C134.54 143.82 155.1 124.756 155.1 101.328V42.4923C155.1 19.0643 134.54 0 109.275 0H45.825ZM45.825 6.53727H109.275C130.73 6.53727 148.05 22.5978 148.05 42.4923V101.328C148.05 121.222 130.73 137.283 109.275 137.283H45.825C24.3702 137.283 7.05 121.222 7.05 101.328V42.4923C7.05 22.5978 24.3702 6.53727 45.825 6.53727ZM119.85 26.1491C115.956 26.1491 112.8 29.0759 112.8 32.6864C112.8 36.2968 115.956 39.2236 119.85 39.2236C123.744 39.2236 126.9 36.2968 126.9 32.6864C126.9 29.0759 123.744 26.1491 119.85 26.1491ZM77.55 35.955C56.1769 35.955 38.775 52.0913 38.775 71.91C38.775 91.7287 56.1769 107.865 77.55 107.865C98.9231 107.865 116.325 91.7287 116.325 71.91C116.325 52.0913 98.9231 35.955 77.55 35.955ZM77.55 42.4923C95.113 42.4923 109.275 55.6243 109.275 71.91C109.275 88.1957 95.113 101.328 77.55 101.328C59.987 101.328 45.825 88.1957 45.825 71.91C45.825 55.6243 59.987 42.4923 77.55 42.4923Z" fill="white"/>
</svg> 