<?xml version="1.0" encoding="UTF-8"?>
<svg width="24" height="24" viewBox="0 0 170 151" fill="none" xmlns="http://www.w3.org/2000/svg">
<path d="M85.1317 0.0131836C38.5699 0.0131836 0.745361 33.7791 0.745361 75.3449C0.745361 116.911 38.5699 150.677 85.1317 150.677C131.694 150.677 169.518 116.911 169.518 75.3449C169.518 33.7791 131.694 0.0131836 85.1317 0.0131836ZM85.1317 6.56377C127.728 6.56377 162.18 37.3193 162.18 75.3449C162.18 113.37 127.728 144.126 85.1317 144.126C42.5356 144.126 8.0833 113.37 8.0833 75.3449C8.0833 37.3193 42.5356 6.56377 85.1317 6.56377ZM118.475 39.4318C115.965 39.4318 113.146 39.9507 109.847 41.0119C104.725 42.6594 44.4822 65.4933 37.6286 68.0906C33.7101 69.5776 26.4139 72.3436 26.4139 78.94C26.4139 83.3126 29.284 86.4399 34.9342 88.2413C37.9721 89.2076 45.1873 91.1599 49.3736 92.1883C51.1494 92.6239 53.0365 92.8472 54.9774 92.8472C58.7748 92.8472 62.5963 92.0025 65.5902 90.5123C65.5645 91.0625 65.5813 91.6187 65.6547 92.1755C66.106 95.6146 68.4815 98.8492 72.0037 100.831C74.3078 102.128 93.1276 113.385 95.938 115.173C99.8858 117.692 104.25 119.024 108.55 119.024C116.769 119.024 119.526 111.449 120.854 107.81C122.78 102.527 129.993 59.565 130.808 51.9892C131.362 46.7979 128.938 42.523 124.322 40.5513C122.594 39.8078 120.621 39.4318 118.475 39.4318ZM118.475 45.9824C119.484 45.9824 120.385 46.1314 121.148 46.4622C122.883 47.2057 123.766 48.8631 123.498 51.3687C122.61 59.6323 115.415 101.577 113.882 105.782C112.568 109.378 111.184 112.473 108.55 112.473C105.916 112.473 103.038 111.649 100.202 109.838C97.3656 108.03 78.5323 96.7551 75.9163 95.2845C73.6232 93.994 71.1963 90.7771 74.6121 87.6656C77.4262 85.1043 98.7724 66.6095 100.596 64.9817C101.953 63.7665 101.319 62.3013 99.9867 62.3013C99.5281 62.3013 98.9789 62.4739 98.4102 62.8898C96.1795 64.5177 65.08 83.0951 62.3869 84.5886C60.6038 85.5778 57.8428 86.2903 54.9773 86.2903C53.7556 86.2903 52.5186 86.1595 51.3299 85.868C47.1913 84.8494 40.1875 82.9525 37.4064 82.0682C34.7317 81.2166 33.7589 80.4008 33.7589 78.94C33.7589 76.8635 37.0423 75.43 40.5021 74.1166C44.1564 72.7312 107.388 48.7607 112.334 47.1722C114.623 46.432 116.717 45.9824 118.475 45.9824Z" fill="white"/>
</svg> 