<?xml version="1.0" encoding="UTF-8"?>
<svg width="24" height="24" viewBox="0 0 154 155" fill="none" xmlns="http://www.w3.org/2000/svg">
<path d="M74.8093 0.767553C69.8411 0.793642 64.8586 1.06756 59.8334 1.62844C50.2242 2.71107 40.7005 4.51111 31.5612 8.35903C17.0265 14.4766 6.71982 24.8594 3.73031 39.951C2.46334 46.3164 1.43836 52.773 0.854698 59.2688C-0.269926 71.8822 0.427624 84.5346 4.32822 96.9653C7.40314 106.761 13.069 115.566 22.9913 121.279C27.1908 123.692 32.7285 124.866 35.6184 126.092C36.4298 126.444 36.6291 126.653 36.6718 126.705C36.7145 126.744 36.8284 126.836 36.8142 127.618C36.7145 135.601 36.8142 151.045 36.8142 151.045L36.8284 154.371H43.3341L44.3876 153.432C44.3876 153.432 60.9153 138.862 66.8943 132.862C67.9762 131.792 68.5314 131.192 68.6453 131.127C68.7449 131.062 68.5741 131.023 69.6845 130.996C77.5284 130.853 85.358 130.579 93.1877 130.188C103.509 129.666 114.029 128.766 124.15 124.892C132.962 121.514 140.322 115.996 144.778 107.726C149.333 99.248 151.768 90.2608 152.679 80.9606C154.188 65.4777 153.661 49.9686 148.992 34.6813C146.244 25.7203 140.721 18.1418 132.251 12.7939C122.115 6.40246 110.683 4.00241 99.4941 2.47629C92.9599 1.58931 86.383 1.00234 79.7776 0.819728C78.1263 0.780596 76.4749 0.75451 74.8093 0.767553ZM79.5783 7.49814C85.8563 7.65466 92.1342 8.21554 98.4264 9.07643C109.217 10.5504 119.396 12.7939 128.122 18.2984C135.197 22.7593 139.61 28.7856 141.974 36.4683C146.33 50.7643 146.885 65.4124 145.419 80.3736C144.579 88.9956 142.344 97.1218 138.23 104.779C134.599 111.535 128.934 115.827 121.332 118.735C112.506 122.114 102.911 123.014 92.8033 123.522C85.0591 123.914 77.3006 124.175 69.5421 124.318C67.5918 124.357 65.6842 124.827 64.3318 125.74C62.9795 126.653 62.3673 127.501 61.5274 128.336C57.2567 132.614 48.7437 140.14 44.1029 144.262C44.0744 139.279 44.0317 133.253 44.1029 127.696C44.1313 125.988 43.7043 124.24 42.6366 122.857C41.5689 121.475 40.1026 120.64 38.6933 120.04C34.5792 118.292 29.198 116.961 26.8634 115.618C18.7063 110.922 14.0797 103.879 11.3322 95.1131C7.73056 83.6476 7.04724 71.843 8.11492 59.8297C8.68435 53.5948 9.66662 47.3468 10.9051 41.151C13.496 28.0942 21.6389 19.8767 34.5934 14.4244C42.7789 10.9808 51.5197 9.28513 60.7302 8.25468C67.0082 7.55031 73.2861 7.32857 79.5783 7.49814ZM81.1158 24.142C78.112 24.142 75.1937 24.455 72.3608 25.029C70.4105 25.4464 69.172 27.2333 69.6133 29.0334C70.0546 30.8334 72.0191 31.9552 73.9837 31.5508C76.2756 31.0682 78.6672 30.8204 81.1158 30.8204C98.9104 30.8204 113.26 43.9685 113.26 60.2602C113.26 62.5167 112.99 64.7081 112.463 66.8212C112.022 68.6082 113.246 70.4082 115.21 70.8126C117.175 71.2169 119.125 70.0821 119.566 68.2821C120.207 65.6994 120.549 63.0254 120.549 60.2602C120.549 40.3554 102.854 24.142 81.1158 24.142ZM44.7577 30.8334C44.1598 30.8073 43.5477 30.8465 42.9071 30.9769C36.2874 32.3204 29.7105 36.7162 29.5255 44.5685C29.7105 45.6642 29.6963 46.8381 30.1376 47.8295C32.3014 52.6817 34.1806 57.6905 36.8853 62.2819C50.0534 84.5868 69.9692 100.096 95.3515 109.944C98.3837 111.118 101.516 111.366 104.576 110.192C108.79 108.587 112.363 106.109 114.741 102.548C118.001 97.6566 118.043 94.2653 112.676 90.6521C109.16 88.2782 105.701 85.839 102.142 83.5172C96.7181 79.9954 90.853 79.3823 86.8101 85.5651C86.5965 85.8781 86.2833 86.139 86.0129 86.3999C83.9345 88.4217 81.3863 88.9173 78.6815 87.8999C68.4175 84.0259 60.4882 77.7779 55.705 68.4777C52.8863 63.0124 53.655 60.2732 58.9223 56.634C59.449 56.2818 59.9472 55.9035 60.4313 55.4992C62.7374 53.5687 63.3496 51.273 61.9829 48.6773C58.8938 42.7554 54.7797 37.4727 49.5694 32.9204C48.16 31.6943 46.5514 30.9247 44.7577 30.8334ZM81.0588 34.1596C79.4502 34.1596 77.8558 34.277 76.2899 34.5248C74.9659 34.6813 73.8413 35.4901 73.3573 36.6249C72.8733 37.7727 73.1153 39.064 73.9694 40.0032C74.8378 40.9293 76.2044 41.3597 77.5141 41.0989C78.653 40.9293 79.8488 40.838 81.0588 40.838C92.903 40.838 102.412 49.5512 102.412 60.4036C102.412 61.5124 102.313 62.608 102.128 63.6515C101.843 64.8516 102.313 66.1038 103.324 66.8994C104.348 67.6821 105.758 67.9038 107.011 67.4603C108.249 67.0168 109.132 65.9864 109.303 64.7733C109.573 63.3385 109.701 61.8776 109.701 60.4036C109.701 45.9512 96.832 34.1596 81.0588 34.1596ZM80.5463 44.1772C79.2367 44.1642 78.0124 44.7903 77.3433 45.8338C76.6885 46.8773 76.6885 48.1555 77.3433 49.199C78.0124 50.2425 79.2367 50.8686 80.5463 50.8556C86.625 50.8556 91.4794 55.3035 91.4794 60.8732C91.4652 62.0732 92.1485 63.195 93.2873 63.8081C94.4262 64.4081 95.8213 64.4081 96.9602 63.8081C98.099 63.195 98.7823 62.0732 98.7681 60.8732C98.7681 51.6904 90.5683 44.1772 80.5463 44.1772Z" fill="white"/>
</svg> 