<?xml version="1.0" encoding="UTF-8"?>
<svg width="24" height="24" viewBox="0 0 162 147" fill="none" xmlns="http://www.w3.org/2000/svg">
<path d="M80.5432 0.274414C36.1258 0.274414 0.0432129 33.058 0.0432129 73.4144C0.0432129 113.771 36.1258 146.554 80.5432 146.554C124.961 146.554 161.043 113.771 161.043 73.4144C161.043 33.058 124.961 0.274414 80.5432 0.274414ZM80.5432 6.63441C121.178 6.63441 154.043 36.4952 154.043 73.4144C154.043 110.334 121.178 140.194 80.5432 140.194C39.9088 140.194 7.04321 110.334 7.04321 73.4144C7.04321 36.4952 39.9088 6.63441 80.5432 6.63441ZM45.55 51.1544L31.427 51.1606C31.427 51.1606 30.6188 51.1192 29.6428 51.2352C28.6667 51.3511 27.2248 51.4049 25.7463 52.9245L25.7395 52.9307L25.7327 52.9369C24.4175 54.3034 24.4676 55.8939 24.6321 56.7691C24.7959 57.641 25.1653 58.297 25.1653 58.297V58.3032C25.3011 58.6059 35.5555 81.4341 48.4827 93.6993C57.601 102.356 67.3531 105.214 76.0383 105.214H80.5432C82.0253 105.214 83.349 105.153 84.8157 104.463C86.2823 103.773 87.5432 101.868 87.5432 100.388C87.5432 98.7948 87.5863 97.2498 87.8098 96.3886C88.0186 95.5845 87.938 95.7818 88.0217 95.78C88.1056 95.7965 88.2584 95.8286 88.5481 95.9476C89.1725 96.2041 90.1372 96.7766 91.2073 97.5314C93.344 99.0386 95.875 101.225 98.7132 102.916C102.778 105.364 107.19 105.214 107.19 105.214H121.737L121.894 105.202C121.894 105.202 124.126 105.156 126.419 103.879C127.566 103.241 128.929 102.069 129.386 100.314C129.844 98.5584 129.259 96.7166 128.135 95.0968C127.724 94.5026 125.73 91.8771 117.772 85.4574C115.716 83.8006 114.313 82.6277 113.759 82.0041C113.562 81.7827 113.546 81.8041 113.506 81.7929C113.553 81.6842 114.012 80.8044 115.242 79.352C116.525 77.8383 118.473 75.7292 120.978 72.8305C124.171 69.1348 126.411 65.5811 127.821 62.5825C128.525 61.0832 129.025 59.7227 129.325 58.4895C129.624 57.2562 129.863 56.2311 129.42 54.7691C129.09 53.6808 128.194 52.7061 127.315 52.1916C126.436 51.6771 125.617 51.4833 124.881 51.3593C123.41 51.1114 122.113 51.1544 120.903 51.1544C118.369 51.1544 107.108 51.2351 106.178 51.2351C105.087 51.2351 103.347 51.6479 102.541 52.0674C100.542 53.1077 99.9163 54.5331 99.9163 54.5331L99.7249 54.8374L99.6155 55.179C99.6155 55.179 97.0511 62.7163 94.4134 66.601H94.4065C91.3049 71.1773 88.9912 72.9926 87.9739 73.5075C87.8659 73.5622 87.9257 73.5332 87.8509 73.5696C87.7713 73.3591 87.6709 73.0692 87.6048 72.5324C87.456 71.3233 87.5432 69.6205 87.5432 67.9736C87.5432 63.4121 87.9203 60.5678 87.5022 57.8746C87.2932 56.528 86.7611 55.0284 85.5472 53.8748C84.3333 52.7211 82.7653 52.1532 81.1995 51.8252H81.1927C79.5609 51.4837 77.8023 51.1905 73.5774 51.1544C68.1944 51.1088 64.6887 51.2604 61.5735 52.5208L61.5393 52.5394L61.512 52.5519C60.2812 53.0772 59.3109 53.6793 58.4563 54.4835C58.0291 54.8855 57.5222 55.1784 57.1712 56.4585C56.9956 57.0986 56.9764 58.3097 57.7727 59.2907C58.5691 60.2718 59.6851 60.5677 60.3431 60.6447C60.2217 60.6304 60.8607 60.7582 61.3548 60.9801C61.8488 61.202 62.2778 61.5216 62.387 61.6509V61.6571C62.3413 61.6032 62.8158 62.6744 62.9407 63.6508C63.0657 64.6272 63.0432 65.4147 63.0432 65.4147L63.0364 65.6073L63.0569 65.7998C63.0569 65.7998 63.2718 67.9605 63.1595 70.1909C63.1033 71.3062 62.9482 72.4287 62.7425 73.1163C62.7316 73.1527 62.7266 73.1399 62.7152 73.1722C61.8389 72.6161 59.8182 70.6786 57.0345 66.5016C54.4612 62.6377 52.0511 55.6884 52.0511 55.6884L51.9964 55.5331L51.9349 55.3841C51.9349 55.3841 51.4855 53.8317 49.5013 52.5643C47.6415 51.3747 45.8714 51.2103 45.8714 51.2103L45.55 51.1544ZM44.7366 57.5144C44.9368 57.5809 45.3553 57.7179 45.4338 57.7504L45.3518 57.5268L45.4612 57.7567L45.4749 57.7629V57.7691H45.4817C45.3058 57.6573 45.4549 57.7682 45.4749 57.7939C45.5715 58.0936 47.7086 64.7821 51.0462 69.7934C54.0865 74.3555 56.3327 76.9113 58.7845 78.4391C61.2338 79.9653 64.5274 79.808 66.2014 79.0167C68.4387 77.961 69.0641 76.226 69.4964 74.7808C69.9286 73.3357 70.0828 71.8695 70.1526 70.4829C70.2859 67.8371 70.058 65.6728 70.0364 65.4582C70.0399 65.3387 70.0711 64.305 69.8929 62.9117C69.7132 61.5078 69.3912 59.7632 68.0198 58.0113C69.5559 57.8039 70.4088 57.4881 73.5091 57.5144C77.4628 57.5482 78.0642 57.6981 79.6204 58.0237C80.4679 58.2013 80.5619 58.3484 80.4817 58.2722C80.4015 58.1959 80.4747 58.145 80.5705 58.7629C80.7624 59.9983 80.5432 63.1668 80.5432 67.9737C80.5432 69.3287 80.3992 71.2395 80.6458 73.2405C80.8921 75.2403 81.5801 77.7992 84.2415 79.2962C85.7579 80.1489 88.6547 80.4422 91.385 79.0602C94.1153 77.6782 96.9171 75.0272 100.367 69.9363C103.776 64.9169 105.814 58.3176 106.034 57.62C106.034 57.62 106.073 57.5971 106.096 57.5828C106.158 57.5855 106.079 57.5952 106.178 57.5952C107.474 57.5952 118.536 57.5144 120.903 57.5144C121.554 57.5144 121.84 57.5463 122.325 57.5642C122.129 58.2507 121.865 59.0502 121.381 60.0796C120.244 62.4989 118.292 65.6369 115.468 68.9053C113.035 71.7211 111.144 73.7635 109.699 75.4703C108.253 77.1771 107.117 78.5234 106.643 80.4701C106.168 82.4168 107.074 84.6123 108.311 86.004C109.548 87.3957 111.079 88.5679 113.123 90.2151C120.824 96.4263 122.087 98.3064 122.208 98.4818V98.488C122.338 98.6754 122.254 98.4869 122.304 98.5812C121.867 98.7049 121.348 98.8447 121.299 98.8545H107.135H107.115C107.115 98.8545 104.509 98.7769 102.575 97.6123L102.569 97.6061H102.562C100.516 96.3886 98.0432 94.3006 95.5003 92.5069C94.2288 91.6101 92.9343 90.7697 91.4329 90.153C89.9315 89.5363 88.0285 89.099 86.0257 89.6437C83.1268 90.432 81.518 92.9386 81.0013 94.9292C80.6303 96.3581 80.6852 97.6007 80.6731 98.8483C80.5733 98.8531 80.6597 98.8545 80.5432 98.8545H76.0384C68.9246 98.8545 61.5239 96.8814 53.5413 89.302C43.1632 79.4554 33.9039 60.4134 32.514 57.5207L44.7366 57.5144ZM105.788 57.5393C105.725 57.5521 105.907 57.5646 106.055 57.5765C106.035 57.5864 106.057 57.5678 106.028 57.5827C106.025 57.5296 105.874 57.522 105.788 57.5393Z" fill="white"/>
</svg>